# xmcd
#
# Track frame offsets:
#	150
#	21100
#	41050
#	58050
#	75375
#	91087
#	108437
#	123175
#	138212
#	160437
#
# Disc length: 2298 seconds
#
# Revision: 0
# Processed by: cddbd v1.5.2PL0 Copyright (c) Steve Scherf et al.
# Submitted via: EasyCDDAExtractor 15.3.0.1
#
DISCID=7608f80a
DTITLE=พงษ์เทพ กระโดนชำนาญ - คนจนรุ่นใหม่
DYEAR=1900
DGENRE=Country
TTITLE0=คนจนรุ่นใหม่
TTITLE1=ตังเก
TTITLE2=เด็กน้อย
TTITLE3=ดอกแก้ว
TTITLE4=คอย
TTITLE5=เขาใหญ่
TTITLE6=ตา
TTITLE7=คิดถึง
TTITLE8=โลกหยอกล้อ
TTITLE9=แคนโคราช
EXTD=
EXTT0=
EXTT1=
EXTT2=
EXTT3=
EXTT4=
EXTT5=
EXTT6=
EXTT7=
EXTT8=
EXTT9=
PLAYORDER=
